<svg width="20" height="20" viewBox="0 0 20 20" fill="none" xmlns="http://www.w3.org/2000/svg">
<g clip-path="url(#clip0_133_4636)">
<path d="M10.0001 0C15.5229 0 20 4.47711 20 9.99994C20 15.5228 15.5229 20.0001 10.0001 20.0001C4.47723 20.0001 -6.10352e-05 15.5228 -6.10352e-05 9.99994C0.00616455 4.47968 4.47961 0.00622556 10.0001 0ZM10.0001 18.9999C14.9706 18.9999 19.0001 14.9705 19.0001 9.99994C19.0001 5.02936 14.9706 0.999939 10.0001 0.999939C5.02948 0.999939 1.00006 5.02936 1.00006 9.99994C1.00574 14.9681 5.03186 18.9943 10.0001 18.9999Z" fill="white"/>
<path d="M11.1706 6.12362C11.3786 5.9418 11.6945 5.96304 11.8763 6.17087C12.0579 6.37887 12.0367 6.69473 11.8289 6.87655L8.25904 9.99997L11.829 13.1236C12.0371 13.3054 12.0581 13.6212 11.8765 13.8291C11.6946 14.0371 11.3788 14.0583 11.1708 13.8765L7.17084 10.3764C7.06226 10.2816 7 10.1443 7 9.99997C7 9.85568 7.06226 9.71853 7.17084 9.6235L11.1706 6.12362Z" fill="white"/>
</g>
<defs>
<clipPath id="clip0_133_4636">
<rect width="20" height="20" fill="white" transform="matrix(-1 0 0 1 20 0)"/>
</clipPath>
</defs>
</svg>
