<svg width="20" height="20" viewBox="0 0 20 20" fill="none" xmlns="http://www.w3.org/2000/svg">
<g clip-path="url(#clip0_180_895)">
<path d="M10.0001 0C15.5229 0 20 4.47711 20 9.99994C20 15.5228 15.5229 20.0001 10.0001 20.0001C4.47723 20.0001 -6.10352e-05 15.5228 -6.10352e-05 9.99994C0.00616455 4.47968 4.47961 0.00622556 10.0001 0ZM10.0001 18.9999C14.9706 18.9999 19.0001 14.9705 19.0001 9.99994C19.0001 5.02936 14.9706 0.999939 10.0001 0.999939C5.02948 0.999939 1.00006 5.02936 1.00006 9.99994C1.00574 14.9681 5.03186 18.9943 10.0001 18.9999Z" fill="black"/>
<path d="M11.1708 6.12362C11.3788 5.9418 11.6947 5.96304 11.8765 6.17087C12.0582 6.37887 12.0369 6.69473 11.8291 6.87655L8.25928 9.99997L11.8293 13.1236C12.0373 13.3054 12.0584 13.6212 11.8767 13.8291C11.6949 14.0371 11.379 14.0583 11.171 13.8765L7.17108 10.3764C7.0625 10.2816 7.00025 10.1443 7.00025 9.99997C7.00025 9.85568 7.0625 9.71853 7.17108 9.6235L11.1708 6.12362Z" fill="black"/>
</g>
<defs>
<clipPath id="clip0_180_895">
<rect width="20" height="20" fill="white" transform="matrix(-1 0 0 1 20 0)"/>
</clipPath>
</defs>
</svg>
