<svg width="20" height="20" viewBox="0 0 20 20" fill="none" xmlns="http://www.w3.org/2000/svg">
<g clip-path="url(#clip0_180_892)">
<path d="M9.99994 0C4.47711 0 0 4.47711 0 9.99994C0 15.5228 4.47711 20.0001 9.99994 20.0001C15.5228 20.0001 20.0001 15.5228 20.0001 9.99994C19.9938 4.47968 15.5204 0.00622556 9.99994 0ZM9.99994 18.9999C5.02936 18.9999 0.999939 14.9705 0.999939 9.99994C0.999939 5.02936 5.02936 0.999939 9.99994 0.999939C14.9705 0.999939 18.9999 5.02936 18.9999 9.99994C18.9943 14.9681 14.9681 18.9943 9.99994 18.9999Z" fill="black"/>
<path d="M8.8294 6.12362C8.6214 5.9418 8.30554 5.96304 8.12372 6.17087C7.94208 6.37887 7.96332 6.69473 8.17114 6.87655L11.741 9.99997L8.17096 13.1236C7.96295 13.3054 7.94189 13.6212 8.12353 13.8291C8.30536 14.0371 8.62121 14.0583 8.82922 13.8765L12.8292 10.3764C12.9377 10.2816 13 10.1443 13 9.99997C13 9.85568 12.9377 9.71853 12.8292 9.6235L8.8294 6.12362Z" fill="black"/>
</g>
<defs>
<clipPath id="clip0_180_892">
<rect width="20" height="20" fill="white"/>
</clipPath>
</defs>
</svg>
