<svg width="23" height="23" viewBox="0 0 23 23" fill="none" xmlns="http://www.w3.org/2000/svg">
<g clip-path="url(#clip0_605_2021)">
<path d="M11.5001 0C17.8513 0 23 5.14868 23 11.4999C23 17.8512 17.8513 23.0001 11.5001 23.0001C5.14882 23.0001 -7.05719e-05 17.8512 -7.05719e-05 11.4999C0.00708961 5.15163 5.15156 0.0071594 11.5001 0ZM11.5001 21.8499C17.2162 21.8499 21.8501 17.2161 21.8501 11.4999C21.8501 5.78376 17.2162 1.14993 11.5001 1.14993C5.7839 1.14993 1.15007 5.78376 1.15007 11.4999C1.1566 17.2134 5.78664 21.8434 11.5001 21.8499Z" fill="#1E1E1E"/>
<path d="M12.846 7.04213C13.0852 6.83303 13.4484 6.85746 13.6575 7.09646C13.8664 7.33567 13.842 7.6989 13.603 7.908L9.4977 11.4999L13.6032 15.0921C13.8424 15.3012 13.8666 15.6644 13.6577 15.9034C13.4486 16.1426 13.0854 16.167 12.8462 15.9579L8.24627 11.9329C8.1214 11.8238 8.04981 11.6659 8.04981 11.4999C8.04981 11.334 8.1214 11.1763 8.24627 11.067L12.846 7.04213Z" fill="#1E1E1E"/>
</g>
<defs>
<clipPath id="clip0_605_2021">
<rect width="23" height="23" fill="white" transform="matrix(-1 0 0 1 23 0)"/>
</clipPath>
</defs>
</svg>
