<svg width="39" height="32" viewBox="0 0 39 32" fill="none" xmlns="http://www.w3.org/2000/svg">
<path d="M11.776 28.8C11.4347 30.7627 10.1973 31.744 8.064 31.744H2.944C0.981333 31.744 0 30.9333 0 29.312L0.256 27.904L9.088 2.688C9.68533 0.895999 10.9227 0 12.8 0H14.08C15.1893 0 16 0.341334 16.512 1.024C17.1093 1.62133 17.28 2.47467 17.024 3.584L11.776 28.8ZM33.536 28.8C33.1947 30.7627 31.9573 31.744 29.824 31.744H24.832C23.8933 31.744 23.1253 31.5307 22.528 31.104C22.016 30.592 21.76 29.952 21.76 29.184L22.016 27.904L30.976 2.688C31.5733 0.895999 32.8107 0 34.688 0H35.84C36.9493 0 37.76 0.341334 38.272 1.024C38.8693 1.62133 39.04 2.47467 38.784 3.584L33.536 28.8Z" fill="#8C2C3B"/>
</svg>
