<svg width="39" height="32" viewBox="0 0 39 32" fill="none" xmlns="http://www.w3.org/2000/svg">
<path d="M29.824 29.056C29.2267 30.848 27.9893 31.744 26.112 31.744H24.832C23.7227 31.744 22.8693 31.4453 22.272 30.848C21.76 30.1653 21.632 29.2693 21.888 28.16L27.136 2.944C27.4773 0.981333 28.7147 0 30.848 0H35.968C37.9307 0 38.912 0.810666 38.912 2.432L38.656 3.84L29.824 29.056ZM7.936 29.056C7.33867 30.848 6.10133 31.744 4.224 31.744H3.072C1.96267 31.744 1.10933 31.4453 0.511999 30.848C-7.15256e-07 30.1653 -0.128 29.2693 0.128 28.16L5.248 2.944C5.58933 0.981333 6.82667 0 8.96 0H14.08C15.0187 0 15.744 0.255999 16.256 0.767998C16.8533 1.19466 17.152 1.792 17.152 2.56L16.896 3.84L7.936 29.056Z" fill="#8C2C3B"/>
</svg>
