<svg width="17" height="17" viewBox="0 0 17 17" fill="none" xmlns="http://www.w3.org/2000/svg">
<path fill-rule="evenodd" clip-rule="evenodd" d="M11.9648 0H5C3.89543 0 3 0.89543 3 2V15C3 16.1046 3.89543 17 5 17H15C16.1046 17 17 16.1046 17 15V5.03516L11.9648 0Z" fill="white"/>
<mask id="path-2-inside-1_1037_2195" fill="white">
<path fill-rule="evenodd" clip-rule="evenodd" d="M11.9648 0H5C3.89543 0 3 0.89543 3 2V15C3 16.1046 3.89543 17 5 17H15C16.1046 17 17 16.1046 17 15V5.03516L11.9648 0Z"/>
</mask>
<path d="M11.9648 0L12.8487 -0.883884L12.4826 -1.25H11.9648V0ZM17 5.03516H18.25V4.51739L17.8839 4.15127L17 5.03516ZM5 1.25H11.9648V-1.25H5V1.25ZM4.25 2C4.25 1.58579 4.58579 1.25 5 1.25V-1.25C3.20507 -1.25 1.75 0.205074 1.75 2H4.25ZM4.25 15V2H1.75V15H4.25ZM5 15.75C4.58579 15.75 4.25 15.4142 4.25 15H1.75C1.75 16.7949 3.20507 18.25 5 18.25V15.75ZM15 15.75H5V18.25H15V15.75ZM15.75 15C15.75 15.4142 15.4142 15.75 15 15.75V18.25C16.7949 18.25 18.25 16.7949 18.25 15H15.75ZM15.75 5.03516V15H18.25V5.03516H15.75ZM17.8839 4.15127L12.8487 -0.883884L11.081 0.883884L16.1161 5.91904L17.8839 4.15127Z" fill="black" mask="url(#path-2-inside-1_1037_2195)"/>
<path d="M11 0L14 3L17 6H11V0Z" fill="black"/>
<rect y="7" width="12" height="6" rx="1" fill="black"/>
<path d="M2.755 8.35C3.04 8.35 3.2875 8.398 3.4975 8.494C3.7075 8.587 3.8695 8.722 3.9835 8.899C4.0975 9.073 4.1545 9.2785 4.1545 9.5155C4.1545 9.7525 4.0975 9.958 3.9835 10.132C3.8695 10.306 3.7075 10.441 3.4975 10.537C3.2875 10.63 3.04 10.6765 2.755 10.6765H2.206V11.5H1.315V8.35H2.755ZM2.701 9.9745C2.884 9.9745 3.022 9.9355 3.115 9.8575C3.208 9.7765 3.2545 9.6625 3.2545 9.5155C3.2545 9.3685 3.208 9.2545 3.115 9.1735C3.022 9.0925 2.884 9.052 2.701 9.052H2.206V9.9745H2.701ZM4.58893 8.35H6.07843C6.42343 8.35 6.72943 8.4145 6.99643 8.5435C7.26343 8.6725 7.47043 8.8555 7.61743 9.0925C7.76443 9.3295 7.83793 9.607 7.83793 9.925C7.83793 10.243 7.76443 10.5205 7.61743 10.7575C7.47043 10.9945 7.26343 11.1775 6.99643 11.3065C6.72943 11.4355 6.42343 11.5 6.07843 11.5H4.58893V8.35ZM6.04243 10.789C6.31243 10.789 6.52843 10.7125 6.69043 10.5595C6.85543 10.4065 6.93793 10.195 6.93793 9.925C6.93793 9.655 6.85543 9.4435 6.69043 9.2905C6.52843 9.1375 6.31243 9.061 6.04243 9.061H5.47993V10.789H6.04243ZM9.1977 9.0385V9.7315H10.5882V10.42H9.1977V11.5H8.3067V8.35H10.7772V9.0385H9.1977Z" fill="white"/>
</svg>
